<svg xmlns="http://www.w3.org/2000/svg" viewBox="0 0 640 400" width="640" height="400" role="img" aria-hidden="true"><rect width="640" height="400" rx="18" fill="#e8dffb"/><g opacity="0.35" stroke="#5f4a9c" stroke-width="1"><line x1="0" y1="60" x2="640" y2="60"/><line x1="0" y1="120" x2="640" y2="120"/><line x1="0" y1="180" x2="640" y2="180"/><line x1="0" y1="240" x2="640" y2="240"/><line x1="0" y1="300" x2="640" y2="300"/><line x1="0" y1="360" x2="640" y2="360"/></g><line x1="79" y1="193" x2="79" y2="266" stroke="#17181a" stroke-width="2"/><rect x="70" y="210" width="18" height="40" rx="2" fill="#8e72d8" stroke="#17181a" stroke-width="2"/><rect x="72" y="351" width="14" height="19" rx="2" fill="#5f4a9c" fill-opacity="0.35"/><line x1="113" y1="191" x2="113" y2="242" stroke="#17181a" stroke-width="2"/><rect x="104" y="210" width="18" height="6" rx="2" fill="#17181a" stroke="#17181a" stroke-width="2"/><rect x="106" y="354" width="14" height="16" rx="2" fill="#5f4a9c" fill-opacity="0.35"/><line x1="147" y1="204" x2="147" y2="233" stroke="#17181a" stroke-width="2"/><rect x="138" y="214" width="18" height="4" rx="2" fill="#8e72d8" stroke="#17181a" stroke-width="2"/><rect x="140" y="331" width="14" height="39" rx="2" fill="#5f4a9c" fill-opacity="0.35"/><line x1="181" y1="183" x2="181" y2="240" stroke="#17181a" stroke-width="2"/><rect x="172" y="193" width="18" height="21" rx="2" fill="#8e72d8" stroke="#17181a" stroke-width="2"/><rect x="174" y="337" width="14" height="33" rx="2" fill="#5f4a9c" fill-opacity="0.35"/><line x1="215" y1="148" x2="215" y2="207" stroke="#17181a" stroke-width="2"/><rect x="206" y="167" width="18" height="26" rx="2" fill="#8e72d8" stroke="#17181a" stroke-width="2"/><rect x="208" y="337" width="14" height="33" rx="2" fill="#5f4a9c" fill-opacity="0.35"/><line x1="249" y1="120" x2="249" y2="181" stroke="#17181a" stroke-width="2"/><rect x="240" y="133" width="18" height="34" rx="2" fill="#8e72d8" stroke="#17181a" stroke-width="2"/><rect x="242" y="355" width="14" height="15" rx="2" fill="#5f4a9c" fill-opacity="0.35"/><line x1="283" y1="114" x2="283" y2="162" stroke="#17181a" stroke-width="2"/><rect x="274" y="133" width="18" height="5" rx="2" fill="#17181a" stroke="#17181a" stroke-width="2"/><rect x="276" y="344" width="14" height="26" rx="2" fill="#5f4a9c" fill-opacity="0.35"/><line x1="317" y1="101" x2="317" y2="164" stroke="#17181a" stroke-width="2"/><rect x="308" y="126" width="18" height="12" rx="2" fill="#8e72d8" stroke="#17181a" stroke-width="2"/><rect x="310" y="345" width="14" height="25" rx="2" fill="#5f4a9c" fill-opacity="0.35"/><line x1="351" y1="115" x2="351" y2="148" stroke="#17181a" stroke-width="2"/><rect x="342" y="126" width="18" height="13" rx="2" fill="#17181a" stroke="#17181a" stroke-width="2"/><rect x="344" y="343" width="14" height="27" rx="2" fill="#5f4a9c" fill-opacity="0.35"/><line x1="385" y1="87" x2="385" y2="148" stroke="#17181a" stroke-width="2"/><rect x="376" y="104" width="18" height="35" rx="2" fill="#8e72d8" stroke="#17181a" stroke-width="2"/><rect x="378" y="353" width="14" height="17" rx="2" fill="#5f4a9c" fill-opacity="0.35"/><line x1="419" y1="70" x2="419" y2="119" stroke="#17181a" stroke-width="2"/><rect x="410" y="90" width="18" height="14" rx="2" fill="#8e72d8" stroke="#17181a" stroke-width="2"/><rect x="412" y="348" width="14" height="22" rx="2" fill="#5f4a9c" fill-opacity="0.35"/><line x1="453" y1="71" x2="453" y2="121" stroke="#17181a" stroke-width="2"/><rect x="444" y="90" width="18" height="10" rx="2" fill="#17181a" stroke="#17181a" stroke-width="2"/><rect x="446" y="334" width="14" height="36" rx="2" fill="#5f4a9c" fill-opacity="0.35"/><line x1="487" y1="74" x2="487" y2="124" stroke="#17181a" stroke-width="2"/><rect x="478" y="90" width="18" height="10" rx="2" fill="#8e72d8" stroke="#17181a" stroke-width="2"/><rect x="480" y="350" width="14" height="20" rx="2" fill="#5f4a9c" fill-opacity="0.35"/><line x1="521" y1="75" x2="521" y2="101" stroke="#17181a" stroke-width="2"/><rect x="512" y="90" width="18" height="4" rx="2" fill="#17181a" stroke="#17181a" stroke-width="2"/><rect x="514" y="353" width="14" height="17" rx="2" fill="#5f4a9c" fill-opacity="0.35"/><line x1="555" y1="65" x2="555" y2="115" stroke="#17181a" stroke-width="2"/><rect x="546" y="90" width="18" height="6" rx="2" fill="#17181a" stroke="#17181a" stroke-width="2"/><rect x="548" y="343" width="14" height="27" rx="2" fill="#5f4a9c" fill-opacity="0.35"/><path d="M70,250 C220,230 380,215 580,96" fill="none" stroke="#5f4a9c" stroke-width="2" stroke-dasharray="7 7"/></svg>