<svg xmlns="http://www.w3.org/2000/svg" viewBox="0 0 640 400" width="640" height="400" role="img" aria-hidden="true"><rect width="640" height="400" rx="18" fill="#f3e6d1"/><g opacity="0.35" stroke="#8f6a2d" stroke-width="1"><line x1="0" y1="60" x2="640" y2="60"/><line x1="0" y1="120" x2="640" y2="120"/><line x1="0" y1="180" x2="640" y2="180"/><line x1="0" y1="240" x2="640" y2="240"/><line x1="0" y1="300" x2="640" y2="300"/><line x1="0" y1="360" x2="640" y2="360"/></g><rect x="80" y="158" width="260" height="200" rx="12" fill="#ffffff" stroke="#17181a" stroke-width="2.5"/><rect x="102" y="182" width="120" height="14" rx="7" fill="#17181a" fill-opacity="0.85"/><rect x="102" y="210" width="200" height="8" rx="4" fill="#8f6a2d" fill-opacity="0.5"/><rect x="102" y="228" width="160" height="8" rx="4" fill="#8f6a2d" fill-opacity="0.5"/><rect x="150" y="136" width="260" height="200" rx="12" fill="#c99a50" stroke="#17181a" stroke-width="2.5"/><rect x="172" y="160" width="120" height="14" rx="7" fill="#17181a" fill-opacity="0.85"/><rect x="172" y="188" width="200" height="8" rx="4" fill="#8f6a2d" fill-opacity="0.5"/><rect x="172" y="206" width="160" height="8" rx="4" fill="#8f6a2d" fill-opacity="0.5"/><rect x="220" y="114" width="260" height="200" rx="12" fill="#ffffff" stroke="#17181a" stroke-width="2.5"/><rect x="242" y="138" width="120" height="14" rx="7" fill="#17181a" fill-opacity="0.85"/><rect x="242" y="166" width="200" height="8" rx="4" fill="#8f6a2d" fill-opacity="0.5"/><rect x="242" y="184" width="160" height="8" rx="4" fill="#8f6a2d" fill-opacity="0.5"/><rect x="290" y="92" width="260" height="200" rx="12" fill="#c99a50" stroke="#17181a" stroke-width="2.5"/><rect x="312" y="116" width="120" height="14" rx="7" fill="#17181a" fill-opacity="0.85"/><rect x="312" y="144" width="200" height="8" rx="4" fill="#8f6a2d" fill-opacity="0.5"/><rect x="312" y="162" width="160" height="8" rx="4" fill="#8f6a2d" fill-opacity="0.5"/><rect x="360" y="70" width="260" height="200" rx="12" fill="#ffffff" stroke="#17181a" stroke-width="2.5"/><rect x="382" y="94" width="120" height="14" rx="7" fill="#17181a" fill-opacity="0.85"/><rect x="382" y="122" width="200" height="8" rx="4" fill="#8f6a2d" fill-opacity="0.5"/><rect x="382" y="140" width="160" height="8" rx="4" fill="#8f6a2d" fill-opacity="0.5"/></svg>