<svg xmlns="http://www.w3.org/2000/svg" viewBox="0 0 640 400" width="640" height="400" role="img" aria-hidden="true"><rect width="640" height="400" rx="18" fill="#d9f1f6"/><g opacity="0.35" stroke="#217485" stroke-width="1"><line x1="0" y1="60" x2="640" y2="60"/><line x1="0" y1="120" x2="640" y2="120"/><line x1="0" y1="180" x2="640" y2="180"/><line x1="0" y1="240" x2="640" y2="240"/><line x1="0" y1="300" x2="640" y2="300"/><line x1="0" y1="360" x2="640" y2="360"/></g><line x1="339" y1="313" x2="404" y2="192" stroke="#217485" stroke-opacity="0.5" stroke-width="1.5"/><line x1="339" y1="313" x2="328" y2="309" stroke="#217485" stroke-opacity="0.5" stroke-width="1.5"/><line x1="138" y1="319" x2="166" y2="219" stroke="#217485" stroke-opacity="0.5" stroke-width="1.5"/><line x1="138" y1="319" x2="176" y2="231" stroke="#217485" stroke-opacity="0.5" stroke-width="1.5"/><line x1="138" y1="319" x2="121" y2="271" stroke="#217485" stroke-opacity="0.5" stroke-width="1.5"/><line x1="138" y1="319" x2="148" y2="186" stroke="#217485" stroke-opacity="0.5" stroke-width="1.5"/><line x1="400" y1="70" x2="374" y2="88" stroke="#217485" stroke-opacity="0.5" stroke-width="1.5"/><line x1="400" y1="70" x2="404" y2="192" stroke="#217485" stroke-opacity="0.5" stroke-width="1.5"/><line x1="400" y1="70" x2="378" y2="117" stroke="#217485" stroke-opacity="0.5" stroke-width="1.5"/><line x1="400" y1="70" x2="348" y2="65" stroke="#217485" stroke-opacity="0.5" stroke-width="1.5"/><line x1="374" y1="88" x2="404" y2="192" stroke="#217485" stroke-opacity="0.5" stroke-width="1.5"/><line x1="374" y1="88" x2="378" y2="117" stroke="#217485" stroke-opacity="0.5" stroke-width="1.5"/><line x1="374" y1="88" x2="348" y2="65" stroke="#217485" stroke-opacity="0.5" stroke-width="1.5"/><line x1="166" y1="219" x2="176" y2="231" stroke="#217485" stroke-opacity="0.5" stroke-width="1.5"/><line x1="166" y1="219" x2="121" y2="271" stroke="#217485" stroke-opacity="0.5" stroke-width="1.5"/><line x1="166" y1="219" x2="148" y2="186" stroke="#217485" stroke-opacity="0.5" stroke-width="1.5"/><line x1="176" y1="231" x2="121" y2="271" stroke="#217485" stroke-opacity="0.5" stroke-width="1.5"/><line x1="176" y1="231" x2="148" y2="186" stroke="#217485" stroke-opacity="0.5" stroke-width="1.5"/><line x1="567" y1="331" x2="563" y2="226" stroke="#217485" stroke-opacity="0.5" stroke-width="1.5"/><line x1="404" y1="192" x2="378" y2="117" stroke="#217485" stroke-opacity="0.5" stroke-width="1.5"/><line x1="404" y1="192" x2="328" y2="309" stroke="#217485" stroke-opacity="0.5" stroke-width="1.5"/><line x1="404" y1="192" x2="348" y2="65" stroke="#217485" stroke-opacity="0.5" stroke-width="1.5"/><line x1="404" y1="192" x2="563" y2="226" stroke="#217485" stroke-opacity="0.5" stroke-width="1.5"/><line x1="121" y1="271" x2="148" y2="186" stroke="#217485" stroke-opacity="0.5" stroke-width="1.5"/><line x1="378" y1="117" x2="348" y2="65" stroke="#217485" stroke-opacity="0.5" stroke-width="1.5"/><circle cx="339" cy="313" r="6" fill="#17181a"/><circle cx="138" cy="319" r="9" fill="#36a7bf"/><circle cx="400" cy="70" r="12" fill="#36a7bf"/><circle cx="374" cy="88" r="15" fill="#17181a"/><circle cx="166" cy="219" r="6" fill="#36a7bf"/><circle cx="176" cy="231" r="9" fill="#36a7bf"/><circle cx="567" cy="331" r="12" fill="#17181a"/><circle cx="404" cy="192" r="15" fill="#36a7bf"/><circle cx="121" cy="271" r="6" fill="#36a7bf"/><circle cx="148" cy="186" r="9" fill="#17181a"/><circle cx="378" cy="117" r="12" fill="#36a7bf"/><circle cx="328" cy="309" r="15" fill="#36a7bf"/><circle cx="348" cy="65" r="6" fill="#17181a"/><circle cx="563" cy="226" r="9" fill="#36a7bf"/></svg>