<svg xmlns="http://www.w3.org/2000/svg" viewBox="0 0 640 400" width="640" height="400" role="img" aria-hidden="true"><rect width="640" height="400" rx="18" fill="#dbf1e5"/><g opacity="0.35" stroke="#2f7d59" stroke-width="1"><line x1="0" y1="60" x2="640" y2="60"/><line x1="0" y1="120" x2="640" y2="120"/><line x1="0" y1="180" x2="640" y2="180"/><line x1="0" y1="240" x2="640" y2="240"/><line x1="0" y1="300" x2="640" y2="300"/><line x1="0" y1="360" x2="640" y2="360"/></g><path d="M100.0,110 L540.0,110 L490.0,154 L150.0,154Z" fill="#ffffff" stroke="#17181a" stroke-width="2.5"/><path d="M150.0,162 L490.0,162 L440.0,206 L200.0,206Z" fill="#54ad82" stroke="#17181a" stroke-width="2.5"/><path d="M200.0,214 L440.0,214 L390.0,258 L250.0,258Z" fill="#ffffff" stroke="#17181a" stroke-width="2.5"/><path d="M250.0,266 L390.0,266 L365.0,310 L275.0,310Z" fill="#54ad82" stroke="#17181a" stroke-width="2.5"/><circle cx="451" cy="60" r="6" fill="#2f7d59" fill-opacity="0.6"/><circle cx="340" cy="87" r="6" fill="#2f7d59" fill-opacity="0.6"/><circle cx="296" cy="72" r="6" fill="#2f7d59" fill-opacity="0.6"/><circle cx="323" cy="61" r="6" fill="#2f7d59" fill-opacity="0.6"/><circle cx="187" cy="45" r="6" fill="#2f7d59" fill-opacity="0.6"/><circle cx="320" cy="74" r="6" fill="#2f7d59" fill-opacity="0.6"/><circle cx="491" cy="60" r="6" fill="#2f7d59" fill-opacity="0.6"/><circle cx="520" cy="62" r="6" fill="#2f7d59" fill-opacity="0.6"/><circle cx="190" cy="70" r="6" fill="#2f7d59" fill-opacity="0.6"/><circle cx="509" cy="69" r="6" fill="#2f7d59" fill-opacity="0.6"/><circle cx="232" cy="88" r="6" fill="#2f7d59" fill-opacity="0.6"/><circle cx="373" cy="92" r="6" fill="#2f7d59" fill-opacity="0.6"/><circle cx="429" cy="79" r="6" fill="#2f7d59" fill-opacity="0.6"/><circle cx="328" cy="72" r="6" fill="#2f7d59" fill-opacity="0.6"/><circle cx="389" cy="46" r="6" fill="#2f7d59" fill-opacity="0.6"/><circle cx="423" cy="60" r="6" fill="#2f7d59" fill-opacity="0.6"/><circle cx="290" cy="91" r="6" fill="#2f7d59" fill-opacity="0.6"/><circle cx="450" cy="59" r="6" fill="#2f7d59" fill-opacity="0.6"/><circle cx="298" cy="345" r="9" fill="#17181a"/><circle cx="320" cy="345" r="9" fill="#17181a"/><circle cx="342" cy="345" r="9" fill="#17181a"/></svg>